<?xml version="1.0" standalone="no"?>
<!DOCTYPE svg PUBLIC "-//W3C//DTD SVG 1.1//EN" "http://www.w3.org/Graphics/SVG/1.1/DTD/svg11.dtd" >
<svg xmlns="http://www.w3.org/2000/svg">
<metadata>
Created by FontForge 20120731 at Fri Jan 13 15:14:52 2017
 By admin
</metadata>
<defs>
<font id="iconfont" horiz-adv-x="1024" >
  <font-face 
    font-family="iconfont"
    font-weight="500"
    font-stretch="normal"
    units-per-em="1024"
    panose-1="2 0 6 3 0 0 0 0 0 0"
    ascent="896"
    descent="-128"
    x-height="792"
    bbox="15 -166 1008 896.1"
    underline-thickness="0"
    underline-position="0"
    unicode-range="U+0078-E77F"
  />
<missing-glyph 
 />
    <glyph glyph-name=".notdef" 
 />
    <glyph glyph-name=".notdef" 
 />
    <glyph glyph-name=".null" horiz-adv-x="0" 
 />
    <glyph glyph-name="nonmarkingreturn" horiz-adv-x="341" 
 />
    <glyph glyph-name="x" unicode="x" horiz-adv-x="1001" 
d="M281 543q-27 -1 -53 -1h-83q-18 0 -36.5 -6t-32.5 -18.5t-23 -32t-9 -45.5v-76h912v41q0 16 -0.5 30t-0.5 18q0 13 -5 29t-17 29.5t-31.5 22.5t-49.5 9h-133v-97h-438v97zM955 310v-52q0 -23 0.5 -52t0.5 -58t-10.5 -47.5t-26 -30t-33 -16t-31.5 -4.5q-14 -1 -29.5 -0.5
t-29.5 0.5h-32l-45 128h-439l-44 -128h-29h-34q-20 0 -45 1q-25 0 -41 9.5t-25.5 23t-13.5 29.5t-4 30v167h911zM163 247q-12 0 -21 -8.5t-9 -21.5t9 -21.5t21 -8.5q13 0 22 8.5t9 21.5t-9 21.5t-22 8.5zM316 123q-8 -26 -14 -48q-5 -19 -10.5 -37t-7.5 -25t-3 -15t1 -14.5
t9.5 -10.5t21.5 -4h37h67h81h80h64h36q23 0 34 12t2 38q-5 13 -9.5 30.5t-9.5 34.5q-5 19 -11 39h-368zM336 498v228q0 11 2.5 23t10 21.5t20.5 15.5t34 6h188q31 0 51.5 -14.5t20.5 -52.5v-227h-327z" />
    <glyph glyph-name="dianzan" unicode="&#xe63f;" 
d="M512 748q-91 0 -174 -35.5t-143 -95.5t-95.5 -143t-35.5 -174t35.5 -174t95.5 -143t143 -95.5t174 -35.5t174 35.5t143 95.5t95.5 143t35.5 174t-35.5 174t-95.5 143t-143 95.5t-174 35.5zM372 80q0 -1 -0.5 -3t-4.5 -5.5t-11 -3.5h-77q-2 0 -5.5 0.5t-8.5 5t-5 13.5
l-19 298q0 2 0.5 5t5.5 8t13 5h89q3 0 6.5 -0.5t10 -6t6.5 -15.5v-301zM727 123q-2 -6 -5 -15.5t-13 -24.5t-20 -15h-223q-17 0 -36.5 10t-19.5 29v297q5 3 12.5 9t26.5 26t33.5 40.5t26.5 51t12 59.5q0 1 1 8t2.5 13t9.5 11.5t23 5.5q4 -1 10 -3t19.5 -15t21 -34.5t6.5 -67
t-18 -104.5h149q1 -1 4.5 -0.5t9 -1.5t11 -5t9.5 -10.5t4 -18.5q0 -57 -56 -245z" />
    <glyph glyph-name="tianjia" unicode="&#xe607;" 
d="M1008 384q0 -18 -12.5 -31t-30.5 -13h-907q-18 0 -30.5 13t-12.5 31v0q0 18 12.5 30.5t30.5 12.5h907q18 0 30.5 -12.5t12.5 -30.5v0zM512 -113q-18 0 -31 12.5t-13 30.5v907q0 18 13 31t31 13v0q18 0 30.5 -13t12.5 -31v-907q0 -18 -12.5 -30.5t-30.5 -12.5v0z" />
    <glyph glyph-name="chaosong" unicode="&#xe6d4;" 
d="M873 108q-29 81 -90 142.5t-142 90.5q44 31 69.5 79t25.5 104q0 93 -65.5 158.5t-158.5 65.5t-158.5 -65.5t-65.5 -158.5q0 -56 25.5 -104t69.5 -79q-113 -40 -184 -139t-71 -222q0 -65 22 -128h69q-27 62 -27 128q0 87 43 160.5t116.5 116.5t160.5 43q97 0 176 -53
t117 -139h68zM512 364q-66 0 -113 47t-47 113t47 113t113 47t113 -47t47 -113t-47 -113t-113 -47zM864 -20h-32v32q0 13 -9.5 22.5t-22.5 9.5t-22.5 -9.5t-9.5 -22.5v-32h-32q-13 0 -22.5 -9.5t-9.5 -22.5t9.5 -22.5t22.5 -9.5h32v-32q0 -13 9.5 -22.5t22.5 -9.5t22.5 9.5
t9.5 22.5v32h32q13 0 22.5 9.5t9.5 22.5t-9.5 22.5t-22.5 9.5z" />
    <glyph glyph-name="icon21" unicode="&#xe615;" 
d="M885 200h-149q-10 0 -17.5 7.5t-7.5 18t7.5 17.5t17.5 7h149q11 0 18 -7t7 -17.5t-7 -18t-18 -7.5zM885 350h-199q-10 0 -17.5 7t-7.5 17.5t7.5 17.5t17.5 7h199q11 0 18 -7t7 -17.5t-7 -17.5t-18 -7zM885 499h-199q-10 0 -17.5 7.5t-7.5 17.5t7.5 17.5t17.5 7.5h199
q11 0 18 -7.5t7 -17.5t-7 -17.5t-18 -7.5zM661 151v-100q0 -62 -43.5 -105.5t-105.5 -43.5h-249q-62 0 -105.5 43.5t-43.5 105.5v100q0 48 28 86.5t73 53.5q-51 69 -51 158q0 103 65.5 176t158 73t158.5 -73t66 -176q0 -89 -51 -158q44 -15 72 -53.5t28 -86.5zM562 449.5
q0 82.5 -51 140.5t-123.5 58t-123.5 -58t-51 -140.5t51 -141t123.5 -58.5t123.5 58.5t51 141zM612 138q0 39 -27 69.5t-67 39.5q-59 -47 -130.5 -47t-129.5 47q-41 -9 -67.5 -39.5t-26.5 -69.5v-75q0 -46 35.5 -79t86.5 -33h203q51 0 87 33t36 79v75zM736 101h149
q11 0 18 -7.5t7 -17.5t-7 -17.5t-18 -7.5h-149q-10 0 -17.5 7.5t-7.5 17.5t7.5 17.5t17.5 7.5z" />
    <glyph glyph-name="shijian1" unicode="&#xe626;" 
d="M512 807q-92 0 -176 -36t-144.5 -96.5t-96.5 -144.5t-36 -176t36 -175.5t96.5 -144.5t144.5 -96.5t176 -35.5t175.5 35.5t144.5 96.5t96.5 144.5t35.5 175.5t-35.5 176t-96.5 144.5t-144.5 96.5t-175.5 36zM512 -40q-107 0 -198 53t-143.5 143.5t-52.5 197.5t52.5 198
t143.5 143.5t198 52.5t197.5 -52.5t143.5 -143.5t53 -198t-53 -197.5t-143.5 -143.5t-197.5 -53zM730 366h-202v241q0 12 -8.5 21t-20.5 9t-21 -9t-9 -21v-271v0v0q0 -12 9 -20.5t21 -8.5h231q12 0 21 8.5t9 20.5t-9 21t-21 9z" />
    <glyph glyph-name="ren" unicode="&#xe614;" 
d="M789 188q-63 63 -145 92q43 22 78 56q87 87 87 210t-87 210t-210 87t-210 -87t-87 -210t87 -210q35 -34 78 -56q-82 -29 -145 -92q-109 -109 -115 -263h52q6 132 99 226q92 92 221 99q10 -1 20 -1t20 1q129 -7 221 -99q93 -94 99 -226h52q-6 154 -115 263zM267 546
q0 101 72 173t173 72t173 -72t72 -173q0 -96 -65 -166t-160 -78q-10 1 -20 1t-20 -1q-95 8 -160 78t-65 166z" />
    <glyph glyph-name="xiajiantou1" unicode="&#xe61e;" 
d="M856 512q12 12 29.5 12t30 -12t12.5 -29t-12 -30l-374 -365q-13 -12 -30 -12t-30 12l-374 365q-12 13 -12 30t12.5 29t30 12t29.5 -12l344 -336z" />
    <glyph glyph-name="icon6" unicode="&#xe609;" 
d="M841 -147h-642q-52 0 -93 39q-41 41 -41 90v650q0 51 44 85q39 29 90 29h345q13 0 22.5 -9t9.5 -21.5t-9.5 -21.5t-22.5 -9h-345q-27 0 -49 -15t-22 -38v-650q0 -25 23 -46.5t48 -21.5h642q24 0 38.5 21t14.5 47v332q0 13 9.5 22t22 9t22 -9t9.5 -22v-332q0 -50 -30 -87
q-33 -42 -86 -42v0zM500 261q-16 0 -28 11.5t-12 27.5t12 27l419 409q12 11 28.5 11t28 -11.5t11.5 -33.5t-12 -33l-407 -396q-11 -12 -40 -12v0zM500 261z" />
    <glyph glyph-name="xuanzhong" unicode="&#xe650;" 
d="M868 614l-516 -515l-196 196q-15 15 -37.5 15t-38 -15.5t-15.5 -37.5t16 -38l233 -233q16 -16 38 -16t38 16l553 553q16 15 16 37.5t-15.5 38t-38 15.5t-37.5 -16v0z" />
    <glyph glyph-name="shengri" unicode="&#xe60b;" 
d="M892 -76h-56v327q0 17 -12.5 29.5t-29.5 12.5h-549q-17 0 -29.5 -12.5t-12.5 -29.5v-327h-67q-9 0 -16 -6.5t-7 -16t7 -16.5t16 -7h756q9 0 16 7t7 16.5t-7 16t-16 6.5zM788 -76h-537v216q3 -6 8 -17q7 -14 11 -21.5t12.5 -18.5t19.5 -16t24 -5t24 5t19 16t12.5 18.5
t11.5 21.5q19 39 30 39t29 -39q7 -14 11.5 -21.5t13 -18.5t19 -16t24 -5t24 5t19 16t13 18.5t11.5 21.5q18 39 29 39t30 -39q7 -14 11.5 -21.5t13 -18.5t19 -16t24 -5t24 5t19 16t13 18.5t11.5 21.5q4 10 7 16v-215zM788 199q-22 -10 -45 -57q-19 -39 -30 -39t-29 39
q-7 14 -11.5 21.5t-13 18.5t-19 16t-24 5t-24 -5t-19 -16t-13 -18.5t-11.5 -21.5q-18 -39 -29.5 -39t-29.5 39q-7 14 -11.5 21.5t-13 18.5t-19 16t-23.5 5t-24 -5t-19.5 -16t-13 -18.5t-10.5 -21.5q-19 -39 -30 -39t-30 39q-22 47 -45 57v42h537v-42zM364.5 520
q8.5 0 14.5 6t6 14v20q0 9 -6 14.5t-14.5 5.5t-14.5 -5.5t-6 -14.5v-20q0 -8 6 -14t14.5 -6zM364.5 487q-7.5 0 -12.5 -5.5t-5 -12.5v-150q0 -8 5 -13t12.5 -5t12.5 5t5 13v150q0 7 -5 12.5t-12.5 5.5zM515 520q8 0 14 6t6 14v20q0 9 -6 14.5t-14 5.5t-14 -5.5t-6 -14.5v-20
q0 -8 6 -14t14 -6zM515 487q-7 0 -12.5 -5.5t-5.5 -12.5v-150q0 -8 5.5 -13t12.5 -5t12.5 5t5.5 13v150q0 7 -5.5 12.5t-12.5 5.5zM665.5 520q8.5 0 14.5 6t6 14v20q0 9 -6 14.5t-14.5 5.5t-14.5 -5.5t-6 -14.5v-20q0 -8 6 -14t14.5 -6zM665.5 487q-7.5 0 -12.5 -5.5
t-5 -12.5v-150q0 -8 5 -13t12.5 -5t12.5 5t5 13v150q0 7 -5 12.5t-12.5 5.5z" />
    <glyph glyph-name="rili" unicode="&#xe77f;" 
d="M721 6h37q16 0 27.5 8.5t11.5 20t-11.5 20t-27.5 8.5h-37q-16 0 -27 -8.5t-11 -20t11 -20t27 -8.5zM721 177h37q16 0 27.5 8.5t11.5 20.5t-11.5 20t-27.5 8h-37q-16 0 -27 -8t-11 -20t11 -20.5t27 -8.5zM493 177h37q16 0 27 8.5t11 20.5t-11 20t-27 8h-37q-16 0 -27.5 -8
t-11.5 -20t11.5 -20.5t27.5 -8.5zM264 177h37q16 0 27.5 8.5t11.5 20.5t-11.5 20t-27.5 8h-37q-16 0 -27.5 -8t-11.5 -20t11.5 -20.5t27.5 -8.5zM493 6h37q16 0 27 8.5t11 20t-11 20t-27 8.5h-37q-16 0 -27.5 -8.5t-11.5 -20t11.5 -20t27.5 -8.5zM264 6h37q16 0 27.5 8.5
t11.5 20t-11.5 20t-27.5 8.5h-37q-16 0 -27.5 -8.5t-11.5 -20t11.5 -20t27.5 -8.5zM800 635h-58v81q1 1 1 2q0 12 -8.5 20t-20 8t-19.5 -8t-9 -19v0v-84h-347v81v2q0 12 -8.5 20t-20 8t-19.5 -8t-8 -19v0v-84h-61q-73 0 -120.5 -50t-47.5 -138v-442q0 -66 44 -115t108 -55
l594 -1q70 0 119 50t49 121v459q0 71 -49 121t-119 50zM911 -12q0 -40 -30 -68t-72 -28h-595q-43 0 -73 28t-30 68v361h800v-361zM911 481v-75h-800v75q0 38 31 67t83 29h58v-85v0q0 -12 8 -19.5t20 -7.5q11 0 19.5 8t8.5 20v2v82h347v-85h1q0 -12 8 -19.5t20 -7.5
q11 0 19.5 8t8.5 20q0 1 -1 2v82h55q45 0 81.5 -28.5t32.5 -67.5z" />
    <glyph glyph-name="dianzan1" unicode="&#xe608;" 
d="M926 455q-25 30 -76 30h-151q-52 0 -69 7q35 63 35 137t-28 125q-30 52 -73 52h-4q-38 6 -60 -16q-19 -19 -16 -55q4 -45 -11.5 -87t-37 -69.5t-53 -52.5t-47.5 -34.5t-32 -17.5q-7 7 -18 7h-174q-10 0 -18 -8t-8 -18v-488q0 -11 8 -19t18 -8h176q9 0 20 7q2 -5 7 -7
q314 2 420 2q22 0 42 11t34.5 26.5t29 43.5t23.5 51t19.5 61t16.5 61.5t15 62.5q12 58 21 86q19 74 -9 110v0zM259 -7h-123v435h123v-435zM882 359q-10 -35 -22 -89q-8 -36 -13.5 -59.5t-15.5 -60.5t-20 -60.5t-22.5 -48t-26.5 -36.5t-29 -12q-62 0 -241 -1t-180 -1v428
q5 0 9 2q9 4 28 14t56.5 38t67 62.5t50 89t14.5 114.5v12q2 2 18 2h7v0q6 0 13 -7t12 -18q23 -38 21.5 -104t-30.5 -111q-15 -23 -5 -48q20 -35 122 -35h153q25 0 32 -9q16 -12 2 -62v0z" />
    <glyph glyph-name="yewuyeicon15" unicode="&#xe743;" horiz-adv-x="1025" 
d="M925 558q-34 81 -96 143t-143 96q-83 35 -174 35t-174 -35q-81 -34 -143 -96t-96 -143q-35 -83 -35 -174q0 -34 5 -67q2 -10 10.5 -16.5t19 -5t17 10t5.5 19.5q-5 29 -5 59q0 107 53 198.5t144.5 144.5t198.5 53t198.5 -53t144.5 -144.5t53 -198.5t-53 -198.5
t-144.5 -144.5t-198.5 -53q-81 0 -154.5 31t-129.5 90q-8 8 -19 8t-18.5 -7.5t-7.5 -18.5t7 -19q62 -64 144 -99q85 -37 178 -37q91 0 174 35q81 34 143 96t96 143q35 83 35 174t-35 174zM136 232q-16 0 -27.5 -11t-11.5 -27.5t11.5 -27.5t27.5 -11t27.5 11t11.5 27.5
t-11.5 27.5t-27.5 11zM530 656q-10 4 -20 0t-14 -14q-10 -27 -45 -68q-73 -87 -199 -159q-9 -5 -12 -15.5t2 -19.5q8 -14 23 -14q7 0 13 4q150 86 230 191q78 -118 240 -192q5 -3 11 -3q17 0 24 16q4 10 0.5 20t-13.5 14q-117 54 -188 135q-27 30 -43 59q4 8 6 13
q4 10 -0.5 19.5t-14.5 13.5zM534 366q5 0 9 2q10 4 14.5 14t0.5 20q-16 44 -59 87q-8 8 -19 8t-18.5 -7.5t-7.5 -18.5t8 -19q35 -35 48 -69q6 -17 24 -17zM536 114q7 -4 15 -4q14 0 22 11l132 193q9 13 1.5 27t-23.5 14h-349q-11 0 -19 -7.5t-8 -18.5t8 -18.5t19 -7.5h300
l-104 -152q-7 -9 -5 -20t11 -17z" />
    <glyph glyph-name="favorfill" unicode="&#xe60d;" 
d="M999 494q0 -13 -15 -28l-212 -206l50 -291q1 -5 1 -12q0 -12 -6 -20.5t-18 -8.5q-11 0 -23 7l-262 137l-262 -137q-12 -7 -23 -7q-12 0 -18 8.5t-6 20.5q0 3 1 12l50 291l-212 206q-15 16 -15 28q0 22 33 27l292 42l131 265q12 24 29 24t29 -24l131 -265l292 -42
q33 -5 33 -27v0z" />
    <glyph glyph-name="tongxunlu" unicode="&#xe6f5;" 
d="M959 -5q0 -24 -17 -41t-41 -17h-716q-24 0 -41 17t-17 41v779q0 24 17 41t41 17h716q24 0 41 -17t17 -41v-779v0zM895 710q0 24 -17 41t-41 17h-588q-24 0 -41 -17t-17 -41v-651q0 -25 17 -42t41 -17h588q24 0 41 17t17 42v651zM191 704h-64v-640h64v640zM256 576
q0 -13 -9.5 -22.5t-22.5 -9.5h-128q-13 0 -22.5 9.5t-9.5 22.5v0q0 14 9.5 23t22.5 9h128q13 0 22.5 -9t9.5 -23v0zM256 385q0 -14 -9.5 -23t-22.5 -9h-128q-13 0 -22.5 9t-9.5 23v0q0 13 9.5 22t22.5 9h128q13 0 22.5 -9t9.5 -22v0zM256 193q0 -14 -9.5 -23t-22.5 -9h-128
q-13 0 -22.5 9t-9.5 23v0q0 13 9.5 22.5t22.5 9.5h128q13 0 22.5 -9.5t9.5 -22.5v0zM700 383q50 39 50 101q0 53 -37.5 90.5t-89.5 37.5q-8 0 -18 -1q10 -18 19 -40q35 -1 60 -26t25 -61q0 -27 -16.5 -49.5t-41.5 -31.5q-1 -26 -4 -48q61 -9 101.5 -55.5t40.5 -109.5h41
q0 65 -36 117.5t-94 75.5v0zM700 383zM598 356q50 38 50 101q0 53 -37 90.5t-90 37.5t-90.5 -37.5t-37.5 -90.5q0 -63 51 -101q-58 -24 -94.5 -76.5t-36.5 -116.5h41q0 69 49 118t118 49t118 -49t49 -118h41q0 64 -36.5 116.5t-94.5 76.5v0zM521 543q36 0 61 -25t25 -61
t-25 -61t-61 -25t-61 25t-25 61t25 61t61 25v0zM521 543z" />
    <glyph glyph-name="dizhi" unicode="&#xe68a;" 
d="M507 288q-69 0 -118 48.5t-49 117.5t49 118t118 49t118 -49t49 -118t-49 -117.5t-118 -48.5zM507 566q-46 0 -78.5 -33t-32.5 -79t32.5 -78.5t78.5 -32.5t78.5 32.5t32.5 78.5t-32.5 79t-78.5 33zM825 701q-9 13 -16 21q-2 3 -4 5q-8 9 -19 20q-5 5 -8 9q-8 7 -16 15
q-4 2 -4 3q-9 7 -20.5 5.5t-18.5 -10.5q-10 -13 -4 -28q3 -6 8 -10l2.5 -2.5l1.5 -1.5q3 -2 9 -8l13 -13q5 -6 10 -11q6 -7 8 -9q74 -92 74 -209q0 -46 -28 -108.5t-67 -120.5t-88.5 -118.5t-84.5 -99t-63 -65.5q-48 49 -99.5 108t-108 133t-92.5 147t-36 124q0 90 44.5 167
t121.5 122t167 45q13 0 30 -2q4 0 6 -1q27 -2 56 -11q8 -2 15 -5h0.5h1.5q10 -4 20 1t14 15q4 11 -0.5 21.5t-15.5 14.5q-10 4 -23 8q-27 8 -61 12h-7q-2 0 -5.5 0.5l-3.5 0.5q-19 1 -27 1q-105 0 -195 -52t-142 -142t-52 -195q0 -59 38.5 -139t86.5 -146.5t111 -138.5
t90.5 -100.5t45.5 -45.5q8 -8 19 -8q7 0 13 3t44.5 41.5t94 103.5t108.5 137.5t90 152.5t37 140q0 123 -71 224z" />
    <glyph glyph-name="dianhua" unicode="&#xe70a;" 
d="M634 -99q-7 0 -15 1q-176 26 -364 231q-102 113 -154 216.5t-41 174.5v0q4 26 21.5 52t37 43t44 33t35 21t17.5 8q9 4 18 1t14 -11l114 -192q6 -10 2 -21t-14 -16v0q-14 -7 -18 -24q-11 -51 68 -144q68 -81 129 -83q35 -2 60 22q7 7 16.5 8t17.5 -5l179 -135
q17 -13 7 -32q-3 -8 -9.5 -18.5t-24.5 -36t-36.5 -44.5t-47 -34t-56.5 -15zM215 624q-37 -20 -68.5 -48.5t-35.5 -59.5v0q-9 -53 35 -144t147 -204q175 -192 333 -215q34 -6 67.5 26t58.5 74l-145 110q-38 -25 -79 -23q-85 2 -168 101q-97 114 -78 190q6 24 23 42zM949 316
q-10 0 -17.5 6.5t-8.5 15.5q-3 25 -7 47q-3 10 3 19t16.5 11t19.5 -4t11 -16q5 -26 8 -51q1 -10 -5.5 -18.5t-16.5 -9.5h-3zM909 469q-17 0 -24 16q-5 14 -12 28q-30 66 -77 123q-106 131 -265 186q-10 3 -14.5 13t-1 20t13 14.5t19.5 0.5q173 -59 288 -202q50 -62 84 -134
q7 -15 13 -30q4 -10 0 -20t-14 -14q-5 -1 -10 -1zM793 319q-9 0 -16.5 6t-8.5 16q-20 110 -91 198t-175 130q-10 4 -14 14t0 19.5t13.5 14t19.5 0.5q116 -47 196 -145.5t101 -222.5q2 -10 -4 -18.5t-17 -10.5q-2 -1 -4 -1zM633 328q-19 0 -24 18q-16 53 -51 97
q-36 44 -86 71q-9 5 -12 15t2 19.5t15 12.5t19 -2q59 -32 101 -84q42 -51 61 -114q3 -10 -2 -19.5t-15 -12.5q-4 -1 -8 -1z" />
    <glyph glyph-name="bumenguanli" unicode="&#xe605;" 
d="M939 192h-64v160q0 13 -9.5 22.5t-22.5 9.5h-288v192h64q26 0 45 19t19 45v192q0 26 -19 45t-45 19h-192q-27 0 -45.5 -19t-18.5 -45v-192q0 -26 18.5 -45t45.5 -19h64v-192h-288q-13 0 -22.5 -9.5t-9.5 -22.5v-160h-64q-26 0 -45 -19t-19 -45v-192q0 -26 19 -45t45 -19
h192q26 0 45 19t19 45v192q0 26 -19 45t-45 19h-64v128h576v-128h-64q-27 0 -45.5 -19t-18.5 -45v-192q0 -26 18.5 -45t45.5 -19h192q26 0 45 19t19 45v192q0 26 -19 45t-45 19zM427 832h192v-192h-192v192zM299 -64h-192v192h192v-192zM939 -64h-192v192h192v-192z" />
    <glyph glyph-name="shenheren" unicode="&#xe617;" 
d="M497 355q-107 0 -183 76t-76 183t76 183t183 76t183 -76t76 -183t-76 -183t-183 -76v0zM497 832q-90 0 -154.5 -64t-64.5 -154.5t64.5 -154.5t154.5 -64t154.5 64t64.5 154.5t-64.5 154.5t-154.5 64v0zM615 -58h-394q-86 5 -90 103q0 9 4 24.5t7 22.5q51 103 147 162.5
t210 59.5q44 0 86 -9q12 18 28 35q-57 15 -114 15q-126 0 -231.5 -66t-161.5 -180q-5 -10 -10 -30.5t-5 -34.5q2 -65 36 -102t93 -40h442q-25 17 -47 40v0zM901 246l-64 -65l-30 32l-66 65l-167 -167l73 -72l143 142l23 -25l-173 -171h-120v119l261 261q4 5 10 5t10 -5
l100 -100q4 -4 4 -9.5t-4 -9.5v0v0zM556 20h58l-58 59v-59zM791 327l-23 -23l73 -73l21 25zM791 327z" />
    <glyph glyph-name="kehumingdan" unicode="&#xe61d;" 
d="M632 410q36 28 56.5 68.5t20.5 86.5q0 82 -58.5 140t-141 58t-141 -58t-58.5 -140q0 -46 20.5 -86.5t56.5 -68.5q-94 -37 -152 -120.5t-58 -185.5v-66q0 -14 10 -23.5t23 -9.5h598q14 0 23.5 9.5t9.5 23.5v66q0 102 -58 185.5t-151 120.5zM365 565.5q0 59.5 42.5 101.5
t102 42t101.5 -42t42 -101.5t-42 -101t-101.5 -41.5t-102 41.5t-42.5 101zM791 59h-564v35q0 116 83 198t199.5 82t199 -82t82.5 -198v-35zM252 363l6 1q24 8 24 31q0 22 -22 31q-27 12 -43 36.5t-16 53.5q0 31 23.5 57.5t55.5 36.5q10 32 31 59q3 6 7 11q-1 0 -3.5 0.5
t-4.5 0.5q-69 0 -117.5 -48.5t-48.5 -116.5q0 -63 43 -111q-65 -33 -104 -96t-39 -138v-51q0 -14 10 -23.5t24 -9.5h59q0 26 7 58h-42v26q0 68 41.5 121.5t108.5 70.5v0v0v0v0zM831 405q43 48 43 111q0 68 -48.5 116.5t-117.5 48.5q-1 0 -4 -0.5t-4 -0.5q4 -5 8 -11
q20 -27 31 -59q32 -11 57.5 -37t25.5 -57q0 -29 -15.5 -53.5t-42.5 -36.5q-22 -9 -22 -31q0 -23 23 -31l7 -1q66 -17 108 -70.5t42 -121.5v-26h-48q7 -32 7 -58h60q13 0 23 9.5t10 23.5v51q0 75 -39 138t-104 96v0v0v0zM831 384z" />
    <glyph glyph-name="fuzeren" unicode="&#xe629;" 
d="M497 355q-107 0 -183 76t-76 183t76 183t183 76t183 -76t76 -183t-76 -183t-183 -76v0zM497 832q-90 0 -154.5 -64t-64.5 -154.5t64.5 -154.5t154.5 -64t154.5 64t64.5 154.5t-64.5 154.5t-154.5 64v0zM615 -58h-394q-86 5 -90 103q0 9 4 24.5t7 22.5q51 103 147 162.5
t210 59.5q44 0 86 -9q12 18 28 35q-57 15 -114 15q-126 0 -231.5 -66t-161.5 -180q-5 -10 -10 -30.5t-5 -34.5q2 -65 36 -102t93 -40h442q-25 17 -47 40v0zM384 -58q-22 -23 -47 -40h442q59 3 93 40t36 102q0 14 -5 34.5t-10 30.5q-56 114 -161.5 180t-231.5 66
q-57 0 -114 -15q16 -17 28 -35q43 9 86 9q114 0 210 -59.5t147 -162.5q3 -7 7 -22.5t4 -24.5q-4 -98 -90 -103h-394zM574 21q-9 75 -51 213q25 27 34 72q1 9 -7 10q-26 6 -49.5 6t-49.5 -6q-9 -1 -7 -10q9 -45 34 -72q-42 -139 -51 -213q-1 -3 2 -6q22 -28 66 -54q2 -1 5 -1
h2.5t2.5 1l1 1q46 26 66 53q2 3 2 6v0z" />
    <glyph glyph-name="comm" unicode="&#xe638;" 
d="M816 789h-580q-55 0 -95 -42t-40 -100v-375q0 -56 38.5 -91t95.5 -35h53v-161l188 161h349q57 0 95.5 35t38.5 91v375q0 57 -43.5 99.5t-99.5 42.5zM905 272q0 -35 -23.5 -54t-56.5 -19h-369l-114 -97v97h-107q-33 0 -57 19t-24 54v375q0 36 24.5 62.5t57.5 26.5h580
q34 0 61.5 -27.5t27.5 -61.5v-375zM262 468v0q0 -23 15.5 -38.5t37.5 -15.5t38 15.5t16 38.5v0v0q0 22 -16 37.5t-38 15.5t-37.5 -15.5t-15.5 -37.5v0zM476 468q0 -23 16 -38.5t38 -15.5t37.5 15.5t15.5 38.5v0q0 22 -15.5 37.5t-37.5 15.5t-38 -15.5t-16 -37.5v0zM691 468
v0q0 -23 15.5 -38.5t37.5 -15.5t38 15.5t16 38.5v0v0q0 22 -16 37.5t-38 15.5t-37.5 -15.5t-15.5 -37.5v0z" />
    <glyph glyph-name="dengji" unicode="&#xe60c;" 
d="M920 755q-63 0 -127 14t-105.5 31.5t-81 40.5t-51.5 32t-19 15q-11 9 -24.5 8t-22.5 -12q-28 -36 -78.5 -62.5t-108 -39.5t-107 -19.5t-91.5 -6.5q-15 -2 -23 -9q-9 -9 -9 -23v-370q0 -47 26.5 -111t72.5 -128t101.5 -119t120 -89.5t122.5 -34.5q59 0 124.5 35
t119.5 90.5t98.5 118.5t69.5 124t25 102v380q0 14 -9.5 23.5t-22.5 9.5zM888 342q0 -33 -22.5 -84.5t-61.5 -106.5t-86 -103.5t-101.5 -79.5t-101.5 -31q-57 0 -126 47t-123.5 113t-92 138t-37.5 119v339q39 2 80.5 7.5t99 18t111.5 39t92 62.5q25 -18 55.5 -35.5
t78.5 -39.5t109.5 -36.5t125.5 -17.5v-349v0zM367 582q-6 12 -18.5 16t-24.5 -1.5t-16.5 -18t0.5 -24.5l175 -363q9 -18 29 -18v0q20 0 29 18l180 362q6 12 1.5 25t-16 18.5t-24.5 1.5t-19 -16l-151 -304z" />
    <glyph glyph-name="xingzhuang1" unicode="&#xe674;" 
d="M533 -5q-9 -9 -21 -9t-21 9q-16 17 -41.5 44.5t-82 97t-100 133t-78.5 139.5t-35 129q0 97 48 179.5t130.5 130.5t179.5 48t179.5 -48t130.5 -130.5t48 -179.5q0 -53 -35 -129t-78.5 -139.5t-100.5 -133t-81.5 -96.5t-41.5 -45zM512 838q-124 0 -212 -88t-88 -212
q0 -45 31.5 -112.5t82 -137t96.5 -126t90 -104.5q44 48 90 104.5t96.5 126t82 137t31.5 112.5q0 124 -88 212t-212 88zM512 393q-60 0 -103 42.5t-43 102.5t43 103t103 43t103 -43t43 -103t-43 -102.5t-103 -42.5zM512 626q-36 0 -61.5 -26t-25.5 -62t25.5 -61.5t61.5 -25.5
t61.5 25.5t25.5 61.5t-25.5 62t-61.5 26zM290 81q10 7 22 5.5t19 -11t5.5 -21.5t-11.5 -20q-20 -15 -20 -29q0 -25 59.5 -50t147.5 -25t147.5 25t59.5 50q0 13 -18 27q-10 8 -11 20t6.5 21.5t19.5 10.5t22 -6q39 -32 39 -73q0 -57 -76 -95t-189 -38t-189 38t-76 95
q0 43 43 76z" />
    <glyph glyph-name="xingbie1" unicode="&#xe63c;" 
d="M698 425v160l51 -52q8 -9 20 -9q11 0 19 8t8 19.5t-8 19.5l-80 81q-12 17 -31 19q-23 3 -43 -17q-9 -9 -29.5 -30t-36.5 -37l-15 -16v0q-8 -8 -8 -19q0 -12 8 -20t19.5 -8t19.5 9v0q27 27 51 52v-160q-60 -10 -100.5 -57t-40.5 -110q0 -70 49.5 -119.5t119.5 -49.5
t119.5 49.5t49.5 119.5q0 63 -40.5 110t-101.5 57zM671.5 149q-44.5 0 -75.5 31.5t-31 75.5t31 75.5t75.5 31.5t75.5 -31.5t31 -75.5t-31 -75.5t-75.5 -31.5zM462 269h-81v67v7q60 10 100.5 57.5t40.5 109.5q0 70 -49.5 119.5t-119.5 49.5t-119.5 -49.5t-49.5 -119.5
q0 -63 40.5 -110t101.5 -57v-7v-67h-83q-12 -1 -20 -9t-8 -19t8 -19t20 -8h83v-98q0 -11 8 -19t19.5 -8t19.5 8t8 19v98h81q11 0 19 8t8 19.5t-8 19.5t-19 8zM354 401q-44 0 -75.5 31t-31.5 75.5t31.5 75.5t75.5 31t75.5 -31t31.5 -75.5t-31.5 -75.5t-75.5 -31z" />
    <glyph glyph-name="kehu" unicode="&#xe61f;" 
d="M630 412q34 25 54 65t20 84q0 78 -55.5 134t-134 56t-134 -56t-55.5 -134q0 -44 20 -84t54 -65q-91 -37 -146 -116t-55 -178v-64q0 -14 10 -23.5t24 -9.5h573q14 0 24 9.5t10 23.5v64q-6 96 -63.5 176.5t-145.5 117.5v0v0v0zM384 561q0 53 37 89.5t90 36.5t89.5 -36.5
t36.5 -89.5t-36.5 -90t-89.5 -37t-90 37t-37 90v0v0v0zM768 84h-514v34q0 105 75 179t182 74q106 0 181.5 -75t75.5 -178v-34v0zM273 382h7q22 6 22 30t-22 30q-25 11 -40.5 34t-15.5 51q0 33 18 57.5t49 35.5q10 29 30 56q0 4 8 11h-8q-67 0 -113.5 -46.5t-46.5 -113.5
q0 -61 41 -108q-62 -31 -100 -91t-38 -132v-49q0 -14 10 -23.5t24 -9.5h56q0 26 7 63h-34v19q0 67 40.5 118t105.5 68v0v0v0zM820 423q41 47 41 108q0 65 -47 112.5t-113 47.5h-8l4 -6t3 -5t1 -4q22 -37 30 -56q28 -8 47.5 -33.5t19.5 -55.5q0 -28 -15.5 -51.5t-40.5 -34.5
q-9 -3 -16 -11t-7 -18.5t7 -18.5t16 -11h7q64 -17 104.5 -68t40.5 -115v-18h-33q7 -45 7 -64h56q14 0 24 10t10 24v48q0 67 -38 126.5t-100 93.5v0v0v0zM820 423z" />
    <glyph glyph-name="youjiantou" unicode="&#xe64c;" 
d="M353.5 748q16.5 0 27.5 -11l339 -326q11 -11 11 -27t-11 -27l-339 -326q-11 -11 -27.5 -11t-28 11t-11.5 26.5t12 26.5l311 300l-311 300q-12 11 -12 26.5t11.5 26.5t28 11z" />
    <glyph glyph-name="tixing1" unicode="&#xe6c7;" 
d="M532 770q101 0 187 -50t136 -136t50 -187.5t-50 -187.5t-136 -136t-187 -50t-187 50t-136.5 136t-50.5 187.5t50.5 187.5t136.5 136t187 50zM532 841q-91 0 -173 -35.5t-141.5 -95t-94.5 -141.5t-35 -172.5t35 -173t94.5 -142t141.5 -94.5t172.5 -35t173 35t142 94.5
t94.5 142t35 172.5q0 91 -35 173t-94.5 141.5t-142 95t-172.5 35.5v0zM525 317q-16 0 -27 12l-158 176q-9 11 -8.5 25.5t11.5 24.5t26 9t24 -12l159 -175q10 -12 9 -26.5t-12 -24.5q-11 -9 -24 -9zM532 299q-15 0 -25.5 10.5t-10.5 24.5v317q0 15 10.5 25.5t25 10.5
t25 -10.5t10.5 -25.5v-317q1 -15 -9.5 -25t-25.5 -10zM104 656q-14 0 -24 10q-11 10 -11 25t11 25l149 150q10 10 25 10t25 -10.5t10 -25.5t-10 -25l-149 -149q-11 -10 -26 -10v0zM960 656q-14 0 -25 10l-149 149q-10 10 -10 25t10 25.5t25 10.5t25 -10l149 -150
q11 -10 11 -25t-11 -25q-10 -10 -25 -10zM180 -101q-12 0 -21 7q-12 8 -14.5 22.5t6.5 26.5l44 62q8 13 23 15t27 -7q12 -8 14.5 -22.5t-6.5 -26.5l-44 -62q-12 -15 -29 -15zM885 -101q-18 0 -29 15l-44 62q-9 12 -6.5 26.5t14.5 22.5q12 9 26 6.5t23 -14.5l44 -62
q9 -12 6.5 -26.5t-14.5 -22.5q-9 -7 -20 -7z" />
    <glyph glyph-name="iconfontzhizuobiaozhun41" unicode="&#xe628;" 
d="M875 174l-62 48q-17 14 -17 36v220q0 58 -23 110q-21 51 -60.5 90.5t-90.5 60.5q-18 8 -38 13v31q0 30 -21 51.5t-51 21.5t-51 -21.5t-21 -51.5v-31q-20 -5 -38 -13q-51 -21 -90.5 -60.5t-60.5 -90.5q-23 -52 -23 -110v-220q0 -22 -17 -36l-62 -48q-18 -14 -23 -35
q-6 -20 1 -40t23 -32q18 -14 41 -14h642q23 0 41 14q16 12 23 32t1 40q-5 21 -23 35v0v0zM782 182l61 -48q10 -7 6 -18.5t-16 -11.5h-642q-12 0 -16 11.5t6 18.5l61 48q37 29 37 76v220q0 96 68.5 164.5t164.5 68.5t164.5 -68.5t68.5 -164.5v-220q0 -47 37 -76v0zM512 805
q9 0 15.5 -6.5t6.5 -15.5v-18h-44v18q0 9 6.5 15.5t15.5 6.5v0zM512 805zM416 8q0 -39 28 -67.5t68 -28.5t68 28.5t28 67.5v2h-192v-2zM416 8zM262 740q8 7 9.5 17.5t-5.5 18.5q-8 9 -20 9q-9 0 -16 -6q-68 -54 -110 -131q-44 -78 -53 -167q-2 -11 5 -19t17 -9h3
q10 0 17 6.5t8 15.5q9 78 46.5 146.5t98.5 118.5v0zM262 740zM904 648q-42 76 -110 132q-7 5 -16 5q-12 0 -20 -9q-7 -8 -5.5 -18.5t9.5 -17.5q61 -50 98.5 -118.5t46.5 -146.5q1 -9 8 -15.5t17 -6.5h3q10 1 17 9t5 19q-9 89 -53 167v0zM904 648z" />
    <glyph glyph-name="fenxiang1" unicode="&#xe645;" 
d="M969 578q-3 9 -8 18v0q-37 78 -98 139q-68 69 -157 106q-92 39 -192 39t-192 -39q-9 -4 -19 -8l-0.5 -0.5l-0.5 -0.5q-77 -36 -137 -97q-68 -68 -106 -157q-39 -91 -39 -191.5t39 -192.5q38 -89 106 -157t157 -106l14 -6q5 -3 11 -3q80 -30 167 -30q100 0 192 39
q89 38 157.5 106t105.5 157q39 92 39 192.5t-39 191.5zM376 387q0 57 40.5 97.5t98 40.5t98 -40.5t40.5 -97.5q0 -41 -23 -75.5t-60 -50.5q-3 -1 -7 -3q-23 -9 -48 -9q-58 0 -98.5 40.5t-40.5 97.5zM69 386q0 72 22 140l297 -1q-16 -14 -28 -32l-271 -239q-20 64 -20 132v0z
M695 338l235 208q29 -77 29 -160q0 -64 -18 -125l-288 1q30 33 42 76zM829 701q48 -49 79 -109l-207 -184q-7 64 -52 110v292q102 -32 180 -109zM600 823v-5v-264l-4 2l-240 246q76 29 158 29q44 0 86 -8zM200 701q48 48 108 80l202 -207h-7h-392q33 71 89 127zM200 72
q-59 58 -92 133l220 194q-1 -6 -1 -12v0v0l-1 -404q-71 33 -126 89zM375 -36l1 298q19 -22 45 -36l252 -255q-76 -30 -159 -30q-72 0 -139 23v0zM829 72q-49 -48 -108 -80l-206 208q35 0 68 13h341q-34 -80 -95 -141v0z" />
    <glyph glyph-name="jihua" unicode="&#xe77d;" 
d="M167 352h312q7 0 12 5t5 12v16q0 7 -5 12t-12 5h-312q-7 0 -12 -5t-5 -12v-16q0 -7 5 -12t12 -5zM430 237h-263q-7 0 -12 -4.5t-5 -11.5v-17q0 -7 5 -11.5t12 -4.5h263q7 0 11.5 4.5t4.5 11.5v17q0 7 -4.5 11.5t-11.5 4.5zM167 533h394q7 0 12 5t5 12v16q0 7 -5 12t-12 5
h-394q-7 0 -12 -5t-5 -12v-16q0 -7 5 -12t12 -5zM767 352q-92 0 -157 -65t-65 -157t65 -157t157 -65t157 65t65 157t-65 157t-157 65zM767 -42q-71 0 -122 50.5t-51 122t51 122t122 50.5t122 -50.5t51 -122t-51 -122t-122 -50.5zM874 138h-115v99q0 7 -5 12t-12 5h-16
q-7 0 -12 -5t-5 -12v-131q0 -7 5 -12t12 -5h148q7 0 11.5 5t4.5 12v16q0 7 -4.5 11.5t-11.5 4.5zM599 -43q-2 1 -3 3h-0.5t-0.5 1q-2 2 -5 4l-1 1l-3 3l-1 1l-4 4v0v1q-2 1 -4 3q0 1 -1 2l-3 3l-0.5 0.5l-0.5 0.5q-2 2 -3 4l-1.5 1.5t-2.5 3t-1 2.5q-2 2 -3 4l-1.5 1.5
t-2.5 3.5q0 1 -1 2q-40 59 -40 131q0 99 70 168.5t168 69.5h15v0q14 -1 28 -4v0q4 0 7 -1v0l6 -2h1q3 0 6 -1l1 -1q3 -1 6 -1v362q0 56 -39.5 95.5t-95.5 39.5h-520q-56 0 -95.5 -39.5t-39.5 -95.5v-640q0 -56 39.5 -95.5t95.5 -39.5h436q-2 2 -5 4zM183 7q-39 0 -67 27.5
t-28 66.5v616q0 38 26.5 64.5t64.5 26.5h485q43 0 74 -31t31 -75v-273q-7 1 -15 1q-121 0 -206.5 -86t-85.5 -207q0 -69 30 -130h-309v0z" />
    <glyph glyph-name="weibiaoti31" unicode="&#xe675;" 
d="M845 643v0q-21 15 -46 15h-564q-25 0 -45 -15v0q-31 -23 -31 -62v-394q0 -32 22.5 -54.5t53.5 -22.5h564q32 0 54.5 22.5t22.5 54.5v394q0 39 -31 62zM775 605l-241 -241q-7 -7 -17 -7t-16 7l-241 241h515zM823 187q0 -10 -7 -17t-17 -7h-564q-9 0 -16 7t-7 17v391
l251 -252q23 -22 54 -22v0q28 0 49 17q3 3 6 5l251 252v-391z" />
    <glyph glyph-name="weibiaoti3" unicode="&#xe692;" 
d="M789 399h-175q-45 0 -76.5 31.5t-31.5 76.5v177q0 44 31.5 75.5t76.5 31.5h175q44 0 75.5 -31.5t31.5 -75.5v-177q0 -45 -31 -76q-31 -32 -76 -32zM614 736q-22 0 -37 -15.5t-15 -36.5v-177q0 -22 15 -37.5t37 -15.5h175q21 0 37 16q15 15 15 37v177q0 21 -15.5 36.5
t-36.5 15.5h-175zM387 0h-175q-44 0 -75.5 31.5t-31.5 76.5v176q0 45 31.5 76.5t75.5 31.5h175q44 0 75.5 -31.5t31.5 -76.5v-177q0 -44 -31 -75.5t-76 -31.5zM212 337q-22 0 -37 -15.5t-15 -37.5v-176q0 -22 15 -37.5t37 -15.5h175q22 0 37 15.5t15 36.5v177q0 22 -15 37.5
t-37 15.5h-175zM788 0h-176q-45 0 -76 31q-32 31 -32 76v175q0 45 31.5 76t76.5 31h176q45 0 77 -31q31 -32 31 -76v-175q0 -44 -31.5 -75.5t-76.5 -31.5v0zM612 334q-22 0 -37.5 -15t-15.5 -37v-175q0 -21 15.5 -36.5t37.5 -15.5h176q22 0 37.5 15.5t15.5 36.5v175
q0 21 -15 37q-16 15 -38 15h-176zM389 402h-177q-44 0 -76 31q-31 31 -31 76v175q0 44 31.5 75.5t75.5 31.5h177q45 0 76.5 -31.5t31.5 -75.5v-175q0 -44 -31.5 -75.5t-76.5 -31.5zM212 736q-21 0 -36.5 -15t-15.5 -37v-175q0 -22 15.5 -37t36.5 -15h177q22 0 37.5 15
t15.5 37v175q0 22 -15.5 37t-37.5 15h-177z" />
    <glyph glyph-name="chengjibaogao" unicode="&#xe64f;" 
d="M306 472h260q15 0 25.5 10t10.5 25t-10.5 25.5t-25.5 10.5h-260q-15 0 -25.5 -10.5t-10.5 -25.5t10.5 -25t25.5 -10zM732 543h-47q-15 0 -25.5 -10.5t-10.5 -25.5t10.5 -25t25.5 -10h47q15 0 25 10t10 25t-10 25.5t-25 10.5zM306 297h47q15 0 25.5 10.5t10.5 25t-10.5 25
t-25.5 10.5h-47q-15 0 -25.5 -10.5t-10.5 -25t10.5 -25t25.5 -10.5zM472 297h260q15 0 25 10.5t10 25t-10 25t-25 10.5h-260q-15 0 -25.5 -10.5t-10.5 -25t10.5 -25t25.5 -10.5zM306 122h426q15 0 25 10.5t10 25t-10 25t-25 10.5h-426q-15 0 -25.5 -10.5t-10.5 -25t10.5 -25
t25.5 -10.5zM796 -128h-558q-54 0 -92.5 38.5t-38.5 92.5v690q0 54 38.5 92.5t92.5 38.5h558q54 0 92.5 -38.5t38.5 -92.5v-690q0 -54 -38.5 -92.5t-92.5 -38.5v0zM238 758q-27 0 -46.5 -19t-19.5 -46v-690q0 -27 19.5 -46t46.5 -19h558q27 0 46.5 19t19.5 46v690
q0 27 -19.5 46t-46.5 19h-558v0zM668 719h-302q-37 0 -63 26t-26 62.5t26 62.5t63 26h302q37 0 63 -26t26 -62.5t-26 -62.5t-63 -26v0z" />
    <glyph glyph-name="jianbao1" unicode="&#xe61a;" 
d="M835 833h-662q-29 0 -49.5 -20t-20.5 -49v-758q0 -29 20.5 -49.5t49.5 -20.5h662q29 0 49 20.5t20 49.5v758q0 29 -20 49t-49 20zM848 6q0 -6 -4 -10t-9 -4h-662q-6 0 -10 4t-4 10v758q0 5 4 9t10 4h662q5 0 9 -4t4 -9v-758zM339 128h-84q-11 0 -19.5 -8.5t-8.5 -20
t8.5 -20t19.5 -8.5h84q12 0 20 8.5t8 20t-8 20t-20 8.5zM657 133h-85q-11 0 -19.5 -8t-8.5 -20t8.5 -20t19.5 -8h85q11 0 19.5 8t8.5 20t-8.5 20t-19.5 8zM751 483h-179q-11 0 -19.5 -8t-8.5 -19.5t8.5 -20t19.5 -8.5h179q12 0 20 8.5t8 20t-8 19.5t-20 8zM434 303h-179
q-11 0 -19.5 -8.5t-8.5 -20t8.5 -20t19.5 -8.5h179q12 0 20 8.5t8 20t-8 20t-20 8.5zM751 303h-179q-11 0 -19.5 -8.5t-8.5 -20t8.5 -20t19.5 -8.5h179q12 0 20 8.5t8 20t-8 20t-20 8.5zM751 673h-179q-11 0 -19.5 -8.5t-8.5 -20t8.5 -19.5t19.5 -8h179q12 0 20 8t8 19.5
t-8 20t-20 8.5zM424 673h-148q-20 0 -34.5 -14.5t-14.5 -34.5v-148q0 -20 14.5 -34.5t34.5 -14.5h148q20 0 34 14.5t14 34.5v148q0 20 -14 34.5t-34 14.5zM416 483h-133v134h133v-134z" />
    <glyph glyph-name="zhiwu" unicode="&#xe620;" 
d="M794 742h-90q-14 0 -23 -8.5t-9 -23t9 -23.5t23 -9h90q25 -12 25 -32v-556q0 -12 -6 -22t-19 -10h-564q-25 12 -25 32v550q0 12 6 22t19 10h90q14 0 23 9t9 23t-11.5 23t-26.5 9h-84q-37 0 -63 -28.5t-26 -67.5v-557q0 -39 26 -67.5t63 -28.5h564q37 0 63 28.5t26 67.5
v557q0 39 -25.5 68.5t-63.5 33.5v0zM461 582h115q24 0 41 17t17 41v0v115q0 48 -33.5 78.5t-82 30.5t-82 -30.5t-33.5 -78.5v-115q0 -24 17 -41t41 -17zM467 755q0 19 16 32t35.5 13t35.5 -13t16 -32v-109h-103v109zM365 122v0q9 0 17 8t8 17q10 44 45 72.5t77 23.5
q42 5 77 -23.5t45 -72.5q0 -9 8 -17t17 -8v0q10 0 18 8t8 17q-5 39 -28.5 71t-61.5 51q34 29 37 74t-30 79q-30 35 -75 37.5t-79 -30.5q-33 -33 -34.5 -77t28.5 -77v0q-43 -14 -70.5 -49t-32.5 -79q0 -9 8 -17t18 -8v0zM525 410q24 0 40.5 -17t16.5 -41t-16.5 -41t-40.5 -17
t-41 17t-17 41v0q0 24 17 41t41 17z" />
    <glyph glyph-name="jihua1" unicode="&#xe77e;" 
d="M828 432q-9 0 -16 -6.5t-7 -16.5v0v0v-392q0 -19 -13.5 -32t-32.5 -13h-595q-19 0 -32.5 13t-13.5 32v734q0 19 13.5 32t32.5 13h364q10 0 16.5 7t6.5 16.5t-6.5 16t-16.5 6.5v0h-364q-38 0 -65 -27t-27 -64v-734q0 -37 27 -64t65 -27h595q38 0 65 27t27 64v390v2
q0 10 -7 16.5t-16 6.5zM932 822q-20 20 -48.5 20t-48.5 -20l-6 -5v0l-389 -389l-35 -133l133 36l394 394q20 20 20 48.5t-20 48.5zM862 719l-348 -347l-44 -12l12 44l347 348l11 -11zM337 368h-92q-10 0 -16.5 -6.5t-6.5 -16t6.5 -16t16.5 -6.5h92q9 0 16 6.5t7 16t-7 16
t-16 6.5zM213 169.5q0 -9.5 7 -16t16 -6.5h450q10 0 16.5 6.5t6.5 16t-6.5 16.5t-16.5 7h-450q-9 0 -16 -7t-7 -16.5z" />
    <glyph glyph-name="quanbuyingyong1" unicode="&#xe604;" 
d="M455 627h-149q-15 0 -26 -10.5t-11 -26.5v-148q0 -16 11 -26.5t26 -10.5h149q15 0 26 10.5t11 26.5v148q0 15 -11 26t-26 11zM436 460h-111v111h111v-111zM718 627h-149q-15 0 -26 -10.5t-11 -26.5v-148q0 -16 11 -26.5t26 -10.5h149q15 0 26 10.5t11 26.5v148
q0 15 -11 26t-26 11zM699 460h-111v111h111v-111zM718 364h-149q-15 0 -26 -11t-11 -26v-149q0 -15 11 -26t26 -11h149q15 0 26 11t11 26v149q0 15 -11 26t-26 11zM699 197h-111v111h111v-111zM455 364h-149q-15 0 -26 -11t-11 -26v-149q0 -15 11 -26t26 -11h149q15 0 26 11
t11 26v149q0 15 -11 26t-26 11zM436 197h-111v111h111v-111zM925 559q-34 80 -96 142t-142 96q-83 35 -175 35t-175 -35q-80 -34 -142 -96t-96 -142q-35 -83 -35 -175q0 -36 5 -67q2 -10 10.5 -16.5t19.5 -5t17 10t5 19.5q-5 29 -5 59q0 107 53 198.5t144.5 144.5t198.5 53
t198.5 -53t144.5 -144.5t53 -198.5t-53 -198.5t-144.5 -144.5t-198.5 -53q-81 0 -154.5 31t-129.5 90q-8 7 -18.5 7.5t-18.5 -7.5t-8 -18.5t7 -18.5q64 -65 144 -100q85 -37 178 -37q92 0 175 36q80 34 142 95.5t96 142.5q35 83 35 174q0 93 -35 176zM136 232
q-16 0 -27.5 -11t-11.5 -27.5t11.5 -27.5t27.5 -11t27.5 11t11.5 27.5t-11.5 27.5t-27.5 11z" />
  </font>
</defs>
</svg>
